<svg width="1589" height="902" viewBox="0 0 1589 902" fill="none" xmlns="http://www.w3.org/2000/svg">
<path fill-rule="evenodd" clip-rule="evenodd" d="M1104.23 17.3117C1048.43 13.0036 1001.49 8.41388 977.259 4.33989C929.398 -3.70802 815.85 -0.250812 724.923 12.1258C655.023 21.6053 540.47 45.3015 436.474 69.6814C407.393 67.9899 377.938 65.8725 348.911 63.3332C89.5982 40.653 56.3369 44.0442 43.2149 94.5007C29.6214 146.8 29.5699 151.251 42.544 152.855C46.1034 153.294 49.7547 156.459 52.8774 161.302C47.0868 168.503 43.7354 177.105 41.1967 187.475C40.6308 189.789 40.0891 192.011 39.5717 194.146C19.5823 179.899 16.6978 187.931 19.9241 245.378C20.647 258.247 20.5849 273.066 19.8751 288.234C17.9306 293.382 17.3849 302.536 17.8049 316.837C15.8614 336.64 12.9355 355.297 9.34379 369.109C-4.05079 420.616 -3.67824 425.011 14.5953 431.087L15.459 431.369C13.8209 444.393 11.7613 456.384 9.37257 466.143C-3.63483 519.281 -3.22997 523.628 15.0804 527.442C25.9197 529.697 37.5091 529.892 40.8342 527.876C43.592 526.202 52.9895 551.492 63.2669 587.245C55.3833 591.802 58.0467 598.864 69.266 615.989C70.4781 617.839 71.6659 619.816 72.8254 621.901C78.2738 640.701 84.0443 656.046 90.1343 667.934C96.4474 693.252 97.5792 716.273 89.6037 717.415C66.3079 720.753 95.0733 783.939 149.294 848.531C208.29 918.81 211.586 918.863 499.185 854.263C560.455 840.501 623.455 824.562 680.653 808.674C712.78 813.855 751.654 818.241 791.403 821.176C821.588 827.081 852.198 832.193 880.666 835.91C1048.54 857.906 1468.01 868.207 1412.13 848.962C1364.58 832.587 1389.33 798.586 1464.52 776.978C1503.29 765.838 1536.46 740.6 1538.23 720.895C1540 701.19 1551.77 686.344 1564.38 687.902C1581.45 690.013 1587.44 673.477 1587.81 623.197C1587.95 604.021 1586.97 588.838 1584.41 576.305C1587.66 565.633 1589 549.147 1589 525.128C1589 479.666 1582.84 457.396 1564.4 441.213C1572.48 440.264 1574.29 436.744 1570.76 427.648C1573.32 419.454 1572.97 403.174 1570.96 375.148C1570.28 365.614 1570.01 354.858 1570.12 343.578C1572.97 341.209 1572.95 337.5 1570.36 331.42C1571.28 301.81 1574.52 270.39 1579.3 248.897C1591.51 193.978 1591.07 189.69 1573.21 188.431C1563.43 187.744 1553.03 188.912 1548.99 191.055C1546.23 178.568 1538.72 161.047 1527.4 140.706C1524.77 132.146 1522.06 122.843 1519.36 113.067C1504.08 57.7266 1486.49 30.8548 1466.63 32.4968C1462.19 32.864 1456.45 33.1135 1449.57 33.2548C1408.59 -6.30918 1359.02 -2.89323 1122.74 15.7965C1116.58 16.2834 1110.41 16.7887 1104.23 17.3117ZM135.324 239.492C134.342 240.229 133.369 240.97 132.406 241.718C130.036 239.673 127.68 237.534 125.348 235.306C128.693 236.594 132.024 237.994 135.324 239.492ZM72.9759 146.195C78.2728 143.692 84.4623 141.449 91.731 139.425C78.341 136.283 72.5831 137.714 72.9759 146.195Z" fill="black"/>
</svg>
