<svg width="229" height="282" viewBox="0 0 229 282" fill="none" xmlns="http://www.w3.org/2000/svg">
<path d="M93.5497 183.379C102.528 168.451 123.14 139.837 172.219 99.6308C246.279 38.96 176.381 -16.5336 101.291 13.0221C93.2585 16.1842 70.9991 3.52557 50.3797 16.8615C37.0787 25.4642 42.2551 32.206 37.076 38.948C31.8969 45.6899 11.9297 45.2931 7.55551 62.7994C4.96487 73.1709 12.1339 84.0348 11.175 91.8412C10.2162 99.6476 2.64807 106.684 2.28701 116.99C2.1307 121.343 2.8334 125.683 4.35497 129.764C5.87654 133.846 8.18718 137.587 11.1549 140.775C14.1226 143.963 17.6893 146.535 21.6512 148.344C25.6132 150.153 29.8927 151.164 34.2454 151.319C34.281 159.924 37.6409 168.183 43.623 174.368C49.6051 180.554 57.7463 184.188 66.3453 184.511C71.8591 184.713 77.3354 183.527 82.2716 181.062C87.1694 185.576 91.3741 186.995 93.5497 183.379Z" fill="url(#paint0_linear_367_1272)"/>
<path d="M111.906 9.34962C99.1384 17.5393 83.3427 44.3993 90.2759 80.4556C91.7884 88.3229 87.0622 90.6782 83.0192 80.974C70.8208 51.6975 69.4068 25.2946 90.2759 12.6649C93.9042 10.4806 95.9776 12.2502 98.5692 12.0356C103.499 11.6272 110.135 8.13465 111.906 9.34962Z" fill="url(#paint1_linear_367_1272)"/>
<path d="M95.3194 167.96C95.3194 158.63 95.0022 112.61 95.0177 111.833C69.4027 115.608 69.9211 66.8848 95.8377 78.8065C101.539 82.4348 117.608 78.8065 116.053 48.7432C144.043 78.8065 176.539 43.7423 179.326 72.3149C183.131 111.33 179.303 152.16 155.056 152.163C152.404 152.131 149.759 151.867 147.153 151.373V167.96C147.153 178.326 165.813 183.51 165.813 183.51C165.813 183.51 133.581 213.884 120.199 213.716C106.818 213.548 76.6594 183.51 76.6594 183.51C76.6594 183.51 95.3194 178.326 95.3194 167.96Z" fill="url(#paint2_linear_367_1272)"/>
<g style="mix-blend-mode:multiply">
<path d="M147.152 151.368C134.291 148.516 122.104 143.2 111.264 135.715C111.264 135.715 120.208 157.582 147.119 161.731L147.152 151.368Z" fill="#FFDBC9"/>
</g>
<path d="M216.609 214.61C224.13 231.323 228.013 281.993 228.013 281.993H14.4595C14.4595 281.993 18.3418 231.323 25.8628 214.61C32.4519 199.969 75.8706 183.158 88.5946 178.326C95.9415 186.545 106.47 191.803 121.236 191.803C136.002 191.803 146.531 186.545 153.878 178.326C166.602 183.158 210.02 199.969 216.609 214.61Z" fill="url(#paint3_linear_367_1272)"/>
<defs>
<linearGradient id="paint0_linear_367_1272" x1="99.4208" y1="185.754" x2="105.807" y2="3.48322" gradientUnits="userSpaceOnUse">
<stop stop-color="#E6864E"/>
<stop offset="1" stop-color="#E67240"/>
</linearGradient>
<linearGradient id="paint1_linear_367_1272" x1="93.0277" y1="9.09424" x2="93.0277" y2="87.3477" gradientUnits="userSpaceOnUse">
<stop stop-color="#1D0024"/>
<stop offset="1" stop-color="#100014"/>
</linearGradient>
<linearGradient id="paint2_linear_367_1272" x1="128.348" y1="48.7432" x2="128.348" y2="213.717" gradientUnits="userSpaceOnUse">
<stop stop-color="#FFE0CC"/>
<stop offset="1" stop-color="#FFEADB"/>
</linearGradient>
<linearGradient id="paint3_linear_367_1272" x1="121.236" y1="178.326" x2="121.236" y2="281.993" gradientUnits="userSpaceOnUse">
<stop stop-color="#130027"/>
<stop offset="1" stop-color="#130017"/>
</linearGradient>
</defs>
</svg>
