<svg width="20" height="20" viewBox="0 0 20 20" fill="none" xmlns="http://www.w3.org/2000/svg">
<path fill-rule="evenodd" clip-rule="evenodd" d="M12.1146 14.5532C8.55136 14.5532 5.66282 11.6212 5.66282 8.00428C5.66282 4.38739 8.55136 1.45532 12.1146 1.45532C15.6777 1.45532 18.5663 4.38739 18.5663 8.00428C18.5663 11.6212 15.6777 14.5532 12.1146 14.5532ZM12.1146 16.0086C7.75954 16.0086 4.2291 12.4249 4.2291 8.00428C4.2291 3.58364 7.75954 0 12.1146 0C16.4696 0 20 3.58364 20 8.00428C20 12.4249 16.4696 16.0086 12.1146 16.0086Z" fill="white"/>
<path d="M7.8134 13.0979L6.79961 12.0689L0.499313 18.4641C0.22235 18.7452 0.222351 19.1966 0.499314 19.4778V19.4778C0.782199 19.7649 1.24538 19.7649 1.52827 19.4778L7.8134 13.0979Z" fill="white"/>
</svg>
