<svg width="164" height="111" viewBox="0 0 164 111" fill="none" xmlns="http://www.w3.org/2000/svg">
<rect x="9.36523" y="14.9456" width="145.144" height="81.2812" rx="7.5" fill="black" stroke="white" stroke-width="3"/>
<path d="M83.2069 43.773C82.3438 43.1797 81.2024 43.1872 80.3472 43.7919L13.0154 91.4039C11.0178 92.8165 12.0287 95.9612 14.4753 95.9451L149.762 95.0522C152.209 95.0361 153.178 91.8783 151.162 90.4922L83.2069 43.773Z" fill="black" stroke="white" stroke-width="3"/>
<path d="M83.379 67.0108L82.5248 65.7777L83.379 67.0108L151.073 20.1171C153.084 18.7246 152.105 15.5719 149.66 15.562L14.6512 15.0185C12.2058 15.0087 11.2021 18.1534 13.201 19.562L80.5153 66.9992C81.3728 67.6036 82.5165 67.6082 83.379 67.0108Z" fill="black" stroke="white" stroke-width="3"/>
</svg>
