<svg width="435" height="731" viewBox="0 0 435 731" fill="none" xmlns="http://www.w3.org/2000/svg">
<rect width="435" height="731" rx="25" fill="black"/>
<circle cx="218" cy="366" r="143" fill="white"/>
<rect x="73.5133" y="148.897" width="72.3387" height="41.0827" rx="7.5" transform="rotate(-25.245 73.5133 148.897)" fill="white" stroke="black" stroke-width="3"/>
<path d="M110.998 147.12L112.297 147.857L110.998 147.12L92.1524 180.344C90.9445 182.473 93.2006 184.89 95.4081 183.831L151.961 156.709C154.169 155.65 153.696 152.378 151.279 151.987L113.572 145.886C112.54 145.719 111.513 146.211 110.998 147.12Z" fill="white" stroke="black" stroke-width="3"/>
<path d="M116.25 158.066C117.281 158.245 118.315 157.763 118.84 156.858L137.979 123.863C139.207 121.746 136.977 119.308 134.759 120.343L78.0408 146.809C75.8233 147.844 76.2591 151.119 78.67 151.538L116.25 158.066Z" fill="white" stroke="black" stroke-width="3"/>
<rect x="57.8008" y="612.5" width="72.3387" height="41.0827" rx="7.5" fill="white" stroke="black" stroke-width="3"/>
<path d="M92.4611 626.879L93.3218 628.099L92.4611 626.879L61.246 648.893C59.2452 650.303 60.2551 653.452 62.7034 653.436L125.423 653.023C127.871 653.007 128.839 649.845 126.82 648.461L95.3157 626.86C94.4537 626.269 93.3152 626.277 92.4611 626.879Z" fill="white" stroke="black" stroke-width="3"/>
<path d="M92.5438 639.02C93.4002 639.622 94.541 639.627 95.4023 639.032L126.785 617.351C128.798 615.96 127.821 612.804 125.374 612.794L62.785 612.543C60.338 612.533 59.3353 615.681 61.3373 617.088L92.5438 639.02Z" fill="white" stroke="black" stroke-width="3"/>
<rect x="321.801" y="528.5" width="72.3387" height="41.0827" rx="7.5" fill="white" stroke="black" stroke-width="3"/>
<path d="M356.461 542.879L357.322 544.099L356.461 542.879L325.246 564.893C323.245 566.303 324.255 569.452 326.703 569.436L389.423 569.023C391.871 569.007 392.839 565.845 390.82 564.461L359.316 542.86C358.454 542.269 357.315 542.277 356.461 542.879Z" fill="white" stroke="black" stroke-width="3"/>
<path d="M356.544 555.02C357.4 555.622 358.541 555.627 359.402 555.032L390.785 533.351C392.798 531.96 391.821 528.804 389.374 528.794L326.785 528.543C324.338 528.533 323.335 531.681 325.337 533.088L356.544 555.02Z" fill="white" stroke="black" stroke-width="3"/>
<rect x="328.896" y="50.0929" width="72.3387" height="41.0827" rx="7.5" transform="rotate(25.0697 328.896 50.0929)" fill="white" stroke="black" stroke-width="3"/>
<path d="M354.199 77.8035L354.462 79.2735L354.199 77.8035L316.597 84.5166C314.187 84.9469 313.768 88.2264 315.992 89.2492L372.978 115.451C375.202 116.473 377.419 114.02 376.176 111.911L356.793 78.996C356.262 78.0955 355.228 77.6198 354.199 77.8035Z" fill="white" stroke="black" stroke-width="3"/>
<path d="M349.131 88.836C349.652 89.7441 350.683 90.2316 351.716 90.0576L389.328 83.7167C391.741 83.3099 392.194 80.037 389.981 78.9913L333.395 52.2434C331.183 51.1977 328.941 53.6244 330.158 55.7472L349.131 88.836Z" fill="white" stroke="black" stroke-width="3"/>
<rect x="145.365" y="324.946" width="145.144" height="81.2812" rx="7.5" fill="black" stroke="white" stroke-width="3"/>
<path d="M287.162 400.492L219.207 353.773C218.344 353.18 217.202 353.187 216.347 353.792L149.015 401.404C147.018 402.816 148.029 405.961 150.475 405.945L285.762 405.052C288.209 405.036 289.178 401.878 287.162 400.492Z" fill="black" stroke="white" stroke-width="3"/>
<path d="M149.201 329.562L216.515 376.999C217.373 377.604 218.517 377.608 219.379 377.011L287.073 330.117C289.084 328.725 288.105 325.572 285.66 325.562L150.651 325.019C148.206 325.009 147.202 328.153 149.201 329.562Z" fill="black" stroke="white" stroke-width="3"/>
</svg>
