<svg width="577" height="577" viewBox="0 0 577 577" fill="none" xmlns="http://www.w3.org/2000/svg">
<circle cx="288.5" cy="288.5" r="288.5" fill="black"/>
<rect x="92.2617" y="178.812" width="392.475" height="217.572" rx="7.5" fill="black" stroke="white" stroke-width="3"/>
<path d="M481.263 388.568L289.503 256.683C288.64 256.089 287.498 256.096 286.642 256.701L96.6405 391.108C94.6433 392.521 95.6545 395.665 98.1008 395.649L479.863 393.128C482.309 393.112 483.279 389.955 481.263 388.568Z" fill="black" stroke="white" stroke-width="3"/>
<path d="M97.1501 183.534L287.105 317.448C287.963 318.052 289.107 318.057 289.969 317.459L480.997 185.079C483.006 183.687 482.028 180.534 479.583 180.525L98.6007 178.99C96.1555 178.98 95.1517 182.125 97.1501 183.534Z" fill="black" stroke="white" stroke-width="3"/>
</svg>
