<svg width="1920" height="1080" viewBox="0 0 1920 1080" fill="none" xmlns="http://www.w3.org/2000/svg">
<rect width="1920" height="1080" fill="black"/>
<g clip-path="url(#clip0_482_1381)">
<path d="M1253.21 827.917L1211.96 813.012L1221.4 803.076L1245.26 813.012L1250.73 816.986L1251.22 816.49L1246.75 811.024L1235.32 788.169L1243.77 779.226L1261.16 819.471L1278.56 835.867L1270.61 844.314L1253.21 827.917ZM1198.05 836.364L1185.62 845.307L1216.93 888.532L1207.49 895.487L1176.18 852.262L1163.76 861.205L1157.29 852.758L1191.09 827.917L1198.05 836.364ZM1117.54 873.627L1127.97 868.162L1157.29 925.297L1146.86 930.763L1117.54 873.627ZM1089.21 936.725C1088.71 934.737 1087.72 933.247 1086.23 932.254C1084.74 931.259 1082.75 930.266 1080.76 929.77C1078.77 929.271 1076.79 928.278 1074.3 927.782C1071.82 927.285 1069.83 926.29 1067.84 924.801C1065.85 923.808 1063.86 922.316 1061.88 920.328C1059.89 918.342 1058.89 915.858 1057.9 912.38C1056.91 909.399 1056.91 906.915 1056.91 904.43C1057.4 901.946 1057.9 899.96 1059.39 898.468C1060.39 896.48 1062.37 894.991 1064.36 893.996C1066.35 893.003 1068.34 892.01 1070.82 891.015C1073.8 890.022 1076.79 889.525 1079.27 889.525C1082.25 889.525 1084.24 889.525 1086.23 890.022L1085.73 900.953C1084.74 900.456 1082.75 900.456 1080.76 900.456C1078.77 900.456 1076.29 900.953 1074.3 901.449C1071.82 901.946 1070.33 902.941 1069.33 904.43C1068.34 905.922 1068.34 907.411 1068.83 908.903C1069.33 910.392 1070.33 911.884 1071.82 912.877C1073.31 913.87 1074.8 914.865 1077.28 915.361C1079.27 915.858 1081.26 916.851 1083.74 917.347C1086.23 917.846 1088.22 918.839 1090.7 920.328C1092.69 921.323 1094.68 923.309 1096.66 924.801C1098.65 926.789 1099.65 929.271 1100.64 932.254C1101.63 935.233 1101.63 938.216 1101.63 940.699C1101.14 943.183 1100.64 945.668 1099.15 947.656C1097.66 949.642 1096.17 951.133 1094.18 952.623C1092.19 954.114 1089.71 955.107 1086.73 956.102C1083.25 957.095 1079.77 957.592 1076.79 957.592C1073.8 957.592 1071.32 957.592 1069.83 957.095L1070.82 946.164C1072.31 946.661 1073.8 946.661 1076.29 946.661C1078.77 946.661 1080.76 946.661 1083.25 945.668C1088.22 944.178 1090.7 941.197 1089.21 936.725ZM996.277 936.725L1000.25 936.228C1003.23 935.732 1005.22 934.737 1006.21 932.751C1007.71 930.763 1007.71 928.278 1007.21 924.304C1006.71 921.82 1006.21 919.335 1004.73 917.846C1003.23 916.354 1001.25 915.858 998.761 915.858C997.766 915.858 996.773 916.354 995.778 916.354C994.785 916.354 994.289 916.851 993.79 916.851L996.277 936.725ZM981.366 908.903C983.852 907.908 986.337 907.411 989.318 906.915C992.301 906.418 994.785 905.922 996.773 905.423C999.258 904.927 1001.74 904.927 1004.73 905.423C1007.21 905.423 1009.69 906.418 1011.68 907.411C1013.67 908.404 1015.66 910.392 1017.15 912.38C1018.64 914.366 1019.63 917.347 1020.13 920.827C1020.63 925.794 1020.13 930.266 1018.64 933.744C1017.15 937.221 1014.66 939.706 1011.68 941.197L1015.66 943.68L1030.57 966.535L1017.15 968.026L1002.74 944.178L997.766 943.68L1000.75 970.012L989.318 971.503L981.366 908.903ZM917.258 905.423L949.064 908.404L948.071 918.839L927.694 916.851L926.203 932.751L944.591 934.24L943.596 944.675L925.21 943.183L923.718 959.58L944.591 961.567L943.596 972L911.294 969.019L917.258 905.423ZM853.147 931.756L851.658 942.687H852.154L856.627 932.254L875.512 898.468L887.44 901.449L852.154 958.585L843.706 956.102L841.718 888.532L855.135 892.01L853.147 931.756ZM801.463 871.639L811.9 876.608L785.063 934.737L774.626 929.77L801.463 871.639ZM728.904 866.174L731.886 854.746L731.389 854.25L725.923 864.186L707.535 890.022L698.589 883.563L736.359 831.395L743.317 836.86L739.341 873.627L735.862 885.053L736.359 885.551L741.826 876.11L760.71 850.276L769.655 856.734L731.886 907.908L724.929 902.442L728.904 866.174ZM1310.86 418.524L1298.44 387.223L1357.08 363.375L1361.55 373.807L1312.85 393.681L1321.3 414.051L1310.86 418.524ZM1285.02 316.672L1290.48 325.615L1300.92 314.684L1308.38 308.225V307.729L1299.43 311.703L1285.02 316.672ZM1284.02 332.073L1276.07 319.653L1262.16 324.125L1256.19 314.684L1319.31 295.308L1324.28 302.76L1281.04 352.94L1274.58 343.004L1284.02 332.073ZM1236.31 245.127L1239.3 247.611C1241.28 249.599 1243.27 250.592 1245.76 250.096C1247.75 249.599 1250.23 248.605 1252.71 245.624C1254.7 243.637 1255.7 241.649 1255.7 239.662C1256.19 237.674 1255.2 235.687 1253.21 233.7C1252.71 233.203 1251.72 232.209 1251.22 231.712C1250.73 231.216 1249.73 230.719 1249.23 230.719L1236.31 245.127ZM1247.75 216.311C1249.73 217.801 1252.22 219.292 1254.21 220.782C1256.19 222.769 1258.18 224.26 1259.67 225.254C1261.66 227.241 1263.15 228.731 1264.64 231.216C1266.13 233.203 1267.13 235.19 1267.62 237.674C1268.12 240.159 1268.12 242.146 1267.13 244.63C1266.63 247.114 1264.64 249.599 1262.65 252.083C1259.17 256.058 1255.7 258.045 1252.22 259.039C1248.74 260.032 1245.26 260.032 1241.78 258.542L1242.28 263.013L1234.33 288.849L1224.88 279.906L1233.83 254.07L1230.85 250.096L1212.96 268.975L1205 262.02L1247.75 216.311ZM1177.67 165.136L1204.51 182.029L1199.04 190.972L1182.14 180.041L1173.69 192.959L1189.1 202.896L1183.64 211.839L1168.23 201.902L1159.78 215.814L1177.17 226.744L1171.71 235.687L1144.37 218.795L1177.67 165.136ZM1100.14 140.791C1099.15 140.294 1098.16 140.294 1097.16 139.798C1096.17 139.301 1095.67 139.301 1094.68 139.301L1081.26 180.538C1081.26 180.538 1081.75 181.035 1082.25 181.035C1082.75 181.035 1083.25 181.532 1083.74 181.532C1084.24 181.532 1084.74 182.029 1085.23 182.029C1085.73 182.029 1085.73 182.526 1086.23 182.526C1088.71 183.519 1091.2 183.519 1093.19 183.022C1095.17 182.526 1097.16 181.035 1098.65 179.544C1100.14 178.054 1101.63 175.57 1102.63 173.086C1103.62 170.601 1105.11 168.117 1105.61 165.136C1106.6 162.652 1107.1 159.671 1107.6 157.187C1108.1 154.703 1108.1 152.218 1108.1 150.231C1107.6 148.244 1107.1 146.256 1105.61 144.766C1104.62 142.779 1102.63 141.288 1100.14 140.791ZM1087.22 126.383C1088.22 126.383 1089.71 126.88 1090.7 126.88C1092.19 127.377 1093.19 127.377 1094.68 127.874C1096.17 128.37 1097.16 128.37 1098.65 128.867C1100.14 129.364 1101.14 129.364 1102.13 129.861C1107.1 131.351 1110.58 133.339 1113.06 135.823C1115.55 138.307 1117.54 141.288 1118.53 144.269C1119.52 147.747 1120.02 151.225 1119.52 155.2C1119.03 159.174 1118.04 163.646 1116.54 168.117C1115.05 172.092 1113.56 176.067 1111.57 179.544C1109.59 183.022 1107.1 186.003 1104.12 188.488C1101.14 190.972 1097.66 191.966 1094.18 192.959C1090.2 193.456 1085.73 192.959 1080.76 191.469C1080.27 191.469 1079.27 190.972 1077.78 190.475C1076.79 189.978 1075.29 189.481 1073.8 188.985C1072.31 188.488 1071.32 187.991 1069.83 187.494C1068.83 186.997 1067.84 186.5 1066.85 186.003L1087.22 126.383ZM1003.73 110.484L1035.04 114.459L1033.55 124.892L1013.67 122.408L1012.18 137.81L1030.57 139.798L1029.08 150.231L1010.69 147.747L1008.7 163.646L1029.08 166.13L1027.59 176.563L996.277 173.086L1003.73 110.484ZM919.246 109.987L950.555 108L951.052 118.434L930.675 119.924L931.67 136.32L950.057 134.829L951.548 145.263L933.16 146.753L935.148 172.589L923.718 173.582L919.246 109.987ZM808.917 170.601L800.965 161.659H800.468L805.936 171.098L817.365 200.412L807.425 204.386L784.068 145.263L792.516 141.785L820.845 165.136L828.298 174.079H828.797L823.826 164.64L812.396 134.829L822.336 130.855L845.195 189.978L837.245 192.959L808.917 170.601ZM736.359 219.292L744.807 213.329L733.377 203.393L726.419 195.94H725.923L730.395 204.883L736.359 219.292ZM751.765 219.788L739.341 228.235L744.311 242.146L734.868 248.605L713.498 186.003L720.953 181.035L772.638 222.273L762.698 229.228L751.765 219.788ZM676.225 290.339L663.304 248.108V242.643L645.91 260.529L638.455 253.573L663.304 227.241L670.758 234.693L684.177 276.925V281.893L701.571 264.007L709.025 271.459L683.68 297.792L676.225 290.339ZM627.025 335.551L632.492 326.608L618.079 321.641L609.134 317.665V318.163L616.588 325.118L627.025 335.551ZM641.437 330.087L633.485 343.004L643.425 353.935L637.461 363.375L593.728 313.194L598.697 305.741L662.31 325.118L655.849 335.054L641.437 330.087ZM587.764 411.07L586.77 413.555L612.116 422.498L608.637 432.932L549 412.562L552.479 401.631L579.315 411.07L578.818 408.586L557.449 387.223L561.424 375.299L581.8 397.657L583.788 402.624L588.758 399.146L622.552 393.185L618.079 406.102L587.764 411.07ZM1195.56 297.792H733.874V658.495V662.471V663.961V664.457C733.874 712.651 761.207 761.34 804.941 798.107C846.687 832.886 902.845 855.739 964.967 855.739H968.445C1031.06 854.746 1088.22 828.91 1129.46 792.642C1170.71 756.373 1196.06 709.67 1196.06 666.445C1196.06 664.956 1196.06 665.452 1196.06 664.956V664.457V663.464V658.495V297.792H1195.56ZM1022.62 781.214L1023.11 777.24L1021.62 780.718L1016.65 787.673L1014.17 789.661L1017.15 789.164H1023.11V781.214H1022.62ZM1034.54 794.133H1029.08V804.069H1023.11V794.133H1008.2V790.654L1024.11 768.794H1029.57V789.164H1035.04V794.133H1034.54ZM976.893 786.183C976.893 790.157 977.392 793.138 978.385 795.623C979.378 797.611 980.869 799.1 982.857 799.1C984.845 799.1 986.337 798.107 987.33 796.119C988.325 794.133 988.821 790.654 988.821 786.68C988.821 782.706 988.325 779.725 987.33 777.24C986.337 775.252 984.845 773.763 982.857 773.763C980.869 773.763 979.378 774.756 978.385 776.744C977.392 778.73 976.893 782.207 976.893 786.183ZM970.433 786.183C970.433 780.221 971.428 775.749 973.416 772.768C975.404 769.787 978.385 768.297 982.361 768.297C986.337 768.297 989.814 769.787 991.802 772.768C993.79 775.749 994.785 780.221 994.785 786.68C994.785 792.642 993.79 797.611 991.802 800.592C989.814 803.573 986.833 805.062 982.857 805.062C978.881 805.062 975.404 803.573 973.912 800.592C971.428 796.616 970.433 792.145 970.433 786.183ZM940.615 777.737C940.615 778.73 940.615 779.226 941.112 779.725C941.608 780.221 941.608 780.718 942.107 781.214C942.603 781.711 943.1 782.207 944.095 782.706C944.591 783.202 945.584 783.202 946.083 783.699C948.071 782.207 949.064 780.221 949.064 778.233C949.064 776.744 948.567 775.749 948.071 775.252C947.076 774.756 946.083 774.259 945.088 774.259C943.596 774.259 942.603 774.756 942.107 775.252C940.615 775.749 940.615 776.744 940.615 777.737ZM949.56 794.63C949.56 793.635 949.56 793.138 949.064 792.642C948.567 792.145 948.071 791.649 947.572 791.15C947.076 790.654 946.579 790.157 945.584 789.661C945.088 789.164 944.095 788.668 943.596 788.169C942.107 789.164 941.112 790.157 940.615 791.15C940.119 792.145 939.622 793.138 939.622 794.133C939.622 795.623 940.119 796.616 941.112 797.611C942.107 798.604 943.1 799.1 945.088 799.1C946.579 799.1 947.572 798.604 948.567 798.107C949.064 797.114 949.56 796.119 949.56 794.63ZM933.16 795.126C933.16 794.133 933.16 793.138 933.658 792.145C934.155 791.15 934.155 790.157 935.148 789.661C935.646 788.668 936.143 788.169 937.136 787.673C938.131 787.176 938.627 786.68 939.622 786.183C938.131 785.188 936.639 784.195 935.646 782.706C934.651 781.214 934.155 779.725 934.155 777.737C934.155 776.245 934.155 775.252 934.651 774.259C935.148 773.264 935.646 772.271 936.639 771.278C937.634 770.283 938.627 769.787 940.119 769.29C941.608 768.794 943.1 768.794 944.591 768.794C946.083 768.794 947.572 768.794 948.567 769.29C949.56 769.787 951.052 770.283 951.548 770.782C952.543 771.278 953.04 772.271 953.536 773.264C954.033 774.259 954.033 775.252 954.033 776.744C954.033 778.73 953.536 780.221 952.543 781.711C951.548 783.202 950.555 784.195 948.567 785.687C950.555 786.68 952.045 788.169 953.04 789.661C954.033 791.15 954.531 792.642 954.531 795.126C954.531 796.616 954.033 798.107 953.536 799.1C953.04 800.095 952.045 801.585 951.052 802.081C950.057 803.076 949.064 803.573 947.572 804.069C946.083 804.566 944.591 804.566 943.1 804.566C941.608 804.566 940.119 804.566 938.627 804.069C937.136 803.573 936.143 803.076 935.148 802.081C934.155 801.088 933.658 800.095 933.16 799.1C933.658 798.107 933.16 796.616 933.16 795.126ZM896.881 798.604H903.838V778.73L904.833 775.252L902.349 778.233L897.876 781.214L894.893 777.24L906.325 768.297H909.802V798.107H916.761V803.573H896.881V798.604ZM1105.61 598.875C1140.4 584.963 1172.7 561.115 1180.16 502.488C1173.2 531.305 1158.29 547.702 1139.4 556.645C1119.03 566.084 1094.68 567.574 1070.82 567.574C1086.73 574.034 1097.16 583.97 1105.61 598.875ZM924.215 349.959H937.136V352.94H941.608V362.878C939.124 363.871 937.136 366.356 937.136 369.337C937.136 372.318 939.124 375.299 942.107 376.292C946.083 376.292 949.56 372.814 949.56 368.84C949.56 368.84 949.56 368.84 949.56 368.344V367.845C949.064 366.852 948.567 365.859 947.572 364.864C947.572 364.864 947.572 364.864 947.076 364.864C947.076 364.864 947.076 364.864 946.579 364.864V361.387C946.579 355.425 952.045 347.475 957.512 347.475L968.445 346.978L952.543 388.216H907.318L891.414 346.978H901.85C907.814 346.978 912.785 354.928 912.785 360.89V362.878C911.294 363.375 910.301 364.864 909.306 366.356C909.306 366.852 909.306 366.852 909.306 367.349V367.845C909.306 367.845 909.306 367.845 909.306 368.344C909.306 372.318 912.785 375.795 916.761 375.795H917.258C920.239 374.802 922.723 372.318 922.723 368.84C922.723 365.859 920.737 363.375 918.251 362.382V352.444H922.227V349.959H924.215ZM797.984 490.564C802.953 491.559 806.929 494.042 810.905 497.023L847.183 518.885L855.135 548.198H859.111C863.087 499.011 903.838 459.761 953.536 458.27L951.548 453.303H901.354L891.414 426.472C912.287 428.956 955.524 456.78 941.608 420.013H888.929L879.488 396.166C905.826 396.166 936.143 392.688 961.985 396.166L965.464 396.662C993.294 402.127 1014.66 425.975 1014.66 456.78C1014.66 479.137 1001.74 503.483 983.354 516.897V519.878C1008.2 513.916 1036.53 493.545 1039.51 481.621C1036.03 480.132 1027.09 475.163 1027.09 474.666C1017.15 467.709 1013.17 453.799 1015.66 443.365C1018.14 432.932 1023.11 427.467 1030.07 423.491C1035.04 421.008 1039.51 419.517 1044.48 419.02L1175.68 400.638C1176.18 405.108 1176.68 409.581 1177.17 414.051C1180.16 493.049 1118.04 561.115 1038.02 565.091C1010.69 566.581 975.404 551.179 962.979 525.343C962.481 525.343 961.488 525.343 960.992 525.84C956.021 526.336 952.045 527.331 947.572 528.324C943.596 545.714 978.881 559.129 1020.63 566.084L1013.67 575.027C1021.62 572.543 1029.57 571.053 1038.52 571.053C1083.74 571.053 1121.02 607.818 1121.02 653.528C1121.02 698.739 1084.24 736.003 1038.52 736.003C993.294 736.003 956.021 699.236 956.021 653.528C956.021 649.056 956.519 644.087 957.016 639.616L959.997 640.113L1009.69 643.59C1007.21 647.566 1005.72 652.533 1005.72 657.502C1005.72 672.407 1017.65 684.331 1032.56 684.331C1047.46 684.331 1059.39 672.407 1059.39 657.502C1059.39 643.094 1047.96 631.17 1033.55 630.673V630.177L1030.07 630.673C1029.57 630.673 1029.57 630.673 1029.08 630.673L986.337 635.642C967.452 638.623 951.548 640.113 937.634 639.616L878.493 720.599L871.039 700.727C829.293 697.25 843.706 716.625 853.147 724.575C854.142 725.568 854.142 728.549 853.147 729.544C837.742 728.549 824.322 716.129 824.322 699.732C824.322 683.834 837.742 669.923 854.142 669.923C865.075 669.923 874.517 675.885 879.984 684.828L906.821 599.868H901.85L885.452 623.22C876.008 613.284 868.555 600.863 863.584 587.448L817.862 530.809C815.874 535.279 812.893 538.759 809.413 541.74L800.468 517.89C780.092 516.897 767.667 521.866 778.104 537.267H782.578V530.312H795.001L793.015 556.645V557.141H784.564V555.153L784.068 546.707C772.638 542.733 761.705 533.293 761.705 518.885C761.705 507.954 769.159 496.526 780.092 491.559L774.128 414.051L760.214 396.166H784.068C783.075 386.23 786.056 375.299 792.02 366.852C786.552 367.845 782.08 370.826 777.111 378.28C774.128 361.387 788.044 339.527 807.924 342.508C827.305 345.985 825.814 340.023 835.754 332.57C835.257 339.03 834.759 345.489 833.269 350.954C853.644 352.94 852.651 345.985 865.572 336.049C863.087 355.921 865.572 376.292 840.723 381.757C818.36 387.223 801.463 373.807 786.552 395.669H789.039H818.36L804.444 413.555L797.984 490.564ZM585.279 606.825C586.273 610.799 586.77 615.272 587.764 619.246C588.261 617.754 588.758 615.272 590.746 613.78C588.758 617.754 588.758 622.227 587.267 626.699C587.267 626.699 586.77 626.699 586.77 626.201C586.273 620.239 585.776 612.787 585.279 606.825ZM586.273 588.441C581.8 598.875 585.279 615.272 584.782 614.773C582.297 610.303 580.806 605.83 580.309 601.36C581.303 600.367 581.8 599.372 581.8 598.379C582.297 596.391 581.8 594.405 580.806 592.913C580.309 592.417 579.812 591.92 579.315 591.424C579.812 582.479 584.285 575.524 591.74 572.046C591.243 593.906 604.164 601.36 589.255 613.78C588.758 614.277 588.758 614.277 588.261 614.773C587.764 614.773 585.279 600.863 586.273 588.441ZM579.315 617.754C580.309 620.735 581.303 624.215 582.297 627.196C581.303 626.201 579.812 624.711 578.321 624.215C581.303 626.201 582.794 629.182 585.279 632.163C585.279 632.163 585.776 632.163 585.279 631.666C583.291 627.196 580.806 621.73 579.315 617.754ZM571.861 604.837C578.818 610.303 582.297 623.22 582.297 622.723C582.297 615.272 580.309 608.315 576.334 603.348C575.34 603.348 574.843 603.348 573.849 603.348C571.861 602.849 570.37 601.856 569.376 599.868C568.879 598.875 568.382 597.882 568.382 596.391C566.394 595.398 563.909 594.901 561.424 594.901C569.873 609.806 563.412 619.742 578.321 623.22C578.818 623.22 578.818 623.22 579.315 623.22C580.309 623.718 576.831 613.78 571.861 604.837ZM572.358 633.654C580.309 637.628 586.273 649.552 585.776 649.056C583.291 634.647 571.861 623.22 560.43 626.201C571.364 639.12 567.388 650.547 582.297 650.547C582.794 650.547 582.794 650.547 583.291 650.547C584.782 650.547 579.315 641.106 572.358 633.654ZM575.837 662.471C585.279 665.452 594.225 677.376 594.225 676.879C592.237 671.91 589.752 667.438 586.273 663.961C585.279 664.457 583.788 664.956 582.297 664.457C580.806 663.961 579.315 662.968 578.321 661.476C577.327 659.987 577.327 658.495 577.327 657.006C571.861 654.521 566.394 654.025 560.927 656.509C575.837 668.93 573.352 682.842 590.746 679.861C591.243 679.861 591.74 679.861 591.74 679.861C592.734 679.362 585.279 669.923 575.837 662.471ZM606.152 703.708C609.134 706.689 612.116 710.167 614.6 713.148C613.606 712.651 612.116 712.155 610.625 712.155C610.625 712.155 610.625 712.155 610.625 712.651C610.625 712.651 610.625 713.148 611.122 713.148C614.104 714.141 617.085 716.129 620.564 717.122C621.061 717.122 621.061 716.625 620.564 716.129C616.588 712.651 610.625 707.682 606.152 703.708ZM590.746 693.771C601.679 696.255 612.613 708.675 612.613 708.179C604.661 690.79 587.267 680.853 573.849 688.803C588.758 699.236 590.249 711.656 601.182 712.155C601.679 711.656 602.176 710.663 603.17 710.663C604.164 710.167 605.655 709.67 607.643 710.167C608.637 710.167 609.134 710.663 610.128 711.16H610.625C611.122 710.663 601.679 700.727 590.746 693.771ZM607.146 725.568C618.079 724.079 631.995 732.027 631.498 731.53C625.037 725.072 617.582 720.599 610.128 719.606C609.631 720.103 609.631 720.103 609.134 720.599C608.14 721.594 606.649 721.594 604.661 721.098C603.667 720.599 602.673 720.103 601.679 719.606C597.206 720.103 592.734 722.587 589.752 726.563C610.128 732.027 613.606 747.43 629.013 736.499C629.51 736.003 629.51 736.003 630.007 735.506C631.001 735.008 619.073 728.549 607.146 725.568ZM594.721 624.215C594.225 627.692 593.231 631.666 593.231 634.647C594.225 633.654 595.219 631.666 597.206 631.17C594.225 633.654 592.734 637.132 590.746 640.113C590.746 640.113 590.249 640.113 590.249 639.616C591.243 635.144 593.231 628.685 594.721 624.215ZM600.685 609.806C594.225 616.761 592.237 630.177 591.74 629.68C589.255 613.78 597.206 598.875 610.128 597.882C603.17 614.773 611.619 625.208 595.715 630.177C595.219 630.177 595.219 630.177 594.721 630.673C594.225 631.17 596.709 619.742 600.685 609.806ZM603.17 641.604C598.697 650.049 600.188 663.961 599.691 663.464C593.728 648.559 597.206 631.666 609.134 627.692C606.649 646.075 617.085 654.025 603.667 662.968C603.17 662.968 603.17 663.464 602.673 663.464C602.176 663.961 601.182 652.037 603.17 641.604ZM614.6 671.911C611.619 680.853 615.594 694.765 615.594 694.269C612.116 689.3 610.128 683.338 609.631 678.369C610.625 677.376 611.619 676.381 612.116 674.891V674.395C612.613 672.407 612.116 670.918 611.122 669.426C610.625 668.93 610.625 668.433 610.128 667.937C611.619 663.464 614.104 659.49 618.079 657.502C619.073 675.885 631.001 681.847 619.073 693.274C618.576 693.771 618.576 693.771 618.079 694.269C618.079 694.269 615.098 682.841 614.6 671.911ZM586.273 652.533C585.279 652.037 583.788 651.044 582.297 651.044C582.794 651.54 583.291 651.54 583.788 652.037C584.285 652.037 584.285 652.037 584.782 652.037C585.279 652.533 585.776 652.533 586.273 652.533ZM603.17 666.942C603.667 665.949 604.164 664.457 604.661 663.464C602.673 664.457 602.176 666.445 601.679 667.937C601.182 664.457 601.182 660.98 600.685 657.006C600.685 660.98 600.188 665.949 600.685 670.918C600.685 668.93 601.679 667.438 603.17 666.942ZM612.116 704.205C620.067 716.129 629.51 727.556 639.946 737.492C634.976 735.008 629.013 732.525 624.54 730.537C628.019 732.525 631.995 734.511 634.976 736.996C633.485 736.996 631.001 736.996 629.013 737.989C632.989 737.492 637.461 738.487 641.437 738.984C647.898 744.946 655.352 750.411 662.807 755.378L655.352 742.461C649.389 737.989 643.425 733.022 637.958 727.556C638.455 723.58 637.958 720.103 638.952 716.129C637.461 717.618 637.461 720.103 636.964 721.594C635.473 718.613 634.479 714.637 632.988 711.16C633.982 715.632 635.473 722.091 636.964 726.563C630.007 719.606 624.043 712.155 618.079 704.205C618.576 700.727 618.576 696.752 620.067 693.274C618.576 694.765 618.079 696.751 618.079 698.243C617.085 695.262 616.091 691.288 615.098 687.808C615.594 692.281 616.588 698.243 617.582 703.212C617.085 702.217 616.091 701.224 615.594 700.231C611.122 693.274 606.649 685.823 603.17 678.369C602.176 677.873 601.679 676.88 601.182 675.885C600.685 674.395 600.188 672.904 600.188 671.414C592.734 654.521 587.764 636.635 585.279 617.754C584.285 630.177 586.273 642.597 589.752 655.018C587.267 651.54 584.782 647.566 582.794 644.585C584.285 647.566 586.273 650.547 587.267 653.528C588.261 654.025 588.758 655.018 589.255 655.514C589.752 656.011 589.752 656.509 589.752 657.006L590.249 657.502C593.231 666.942 596.709 676.381 601.182 685.324C597.703 681.35 593.231 676.879 589.255 672.904C591.74 675.885 594.225 678.866 596.212 681.847C594.721 681.35 592.734 680.357 590.746 680.854C594.721 681.847 597.703 684.331 601.182 686.319C604.661 691.784 608.14 698.243 612.116 704.205ZM631.995 694.269C629.51 703.708 634.976 717.122 634.479 717.122C624.54 704.205 623.546 686.319 634.479 678.866C636.964 697.746 649.389 702.217 638.455 715.136C637.958 715.632 637.958 715.632 637.461 716.129C636.467 717.122 632.988 705.695 631.995 694.269ZM602.176 670.918C601.679 672.407 602.176 673.898 602.673 674.891C603.17 675.885 604.164 676.879 605.158 676.879C606.152 676.879 607.146 676.88 608.14 676.381C608.637 676.381 608.637 675.884 609.134 675.388V674.891V674.395C608.637 673.4 607.643 672.407 606.649 672.407C605.655 672.407 604.661 672.407 603.667 672.904C603.17 668.93 602.673 669.923 602.176 670.918ZM570.37 594.405C569.873 595.398 570.37 596.391 570.37 597.386C570.867 598.379 572.358 599.372 573.352 599.868C574.346 599.868 575.34 599.868 576.334 599.372C578.818 599.868 579.315 599.372 579.812 597.882V597.386C579.812 597.386 579.812 596.887 579.315 596.887C578.818 595.894 577.327 594.901 576.334 594.405C575.34 593.906 573.849 594.405 572.855 594.901C571.364 592.417 570.867 593.41 570.37 594.405ZM579.812 657.006C579.812 657.502 579.812 657.502 579.812 657.999C580.309 658.994 581.303 659.49 582.297 659.987C582.794 659.987 582.794 659.987 583.291 659.49C584.285 658.994 584.782 657.999 585.279 657.006C585.279 656.013 585.279 654.521 584.782 653.528C584.285 652.533 583.291 652.037 582.297 651.54C581.303 651.54 580.309 651.54 579.315 652.037C580.309 655.018 579.812 656.013 579.812 657.006ZM602.176 714.637C601.679 715.632 602.176 717.122 602.673 717.618C603.17 718.613 604.164 719.11 605.158 719.606C605.158 719.606 605.158 719.606 605.655 719.606H606.152C606.649 719.606 607.146 719.606 607.643 719.11C608.637 718.613 609.134 717.618 609.134 717.122C609.134 716.129 609.134 715.136 608.637 714.141C608.14 713.148 607.146 712.651 606.152 712.155C606.152 712.155 606.152 712.155 605.655 712.155C603.17 712.651 602.673 713.644 602.176 714.637ZM1345.65 610.303C1344.65 614.277 1344.16 618.749 1343.16 622.723C1342.67 621.234 1342.17 618.749 1340.18 617.258C1342.17 621.234 1342.17 625.704 1343.66 630.177C1343.66 630.177 1344.16 630.177 1344.16 629.68C1344.65 623.718 1345.65 616.265 1345.65 610.303ZM1344.65 591.92C1349.13 602.353 1345.65 618.749 1346.15 618.253C1348.63 613.78 1350.12 609.31 1350.62 604.837C1349.62 603.844 1349.13 602.849 1349.13 601.856C1348.63 599.868 1349.13 597.882 1350.12 596.391C1350.62 595.894 1351.12 595.398 1351.61 594.901C1351.12 585.958 1346.64 579.001 1339.19 575.524C1339.69 597.386 1326.76 604.837 1341.67 617.258C1342.17 617.754 1342.17 617.754 1342.67 618.253C1343.16 618.253 1345.65 604.341 1344.65 591.92ZM1352.11 621.234C1351.12 624.215 1350.12 627.692 1349.13 630.673C1350.12 629.68 1351.61 628.189 1353.1 627.692C1350.12 629.68 1348.63 632.661 1346.15 635.642C1346.15 635.642 1345.65 635.642 1346.15 635.144C1347.64 630.673 1350.12 625.208 1352.11 621.234ZM1359.56 608.315C1352.61 613.78 1349.13 626.699 1349.13 626.201C1349.13 618.749 1351.12 611.792 1355.09 606.825C1356.08 606.825 1356.58 606.825 1357.58 606.825C1359.56 606.329 1361.06 605.334 1362.05 603.348C1362.54 602.353 1363.04 601.36 1363.04 599.868C1365.03 598.875 1367.52 598.379 1370 598.379C1361.55 613.284 1368.01 623.22 1353.1 626.699C1352.61 626.699 1352.61 626.699 1352.11 626.699C1350.62 627.196 1354.1 617.258 1359.56 608.315ZM1358.57 637.132C1350.62 641.106 1344.65 653.03 1345.15 652.533C1347.64 638.125 1359.07 626.699 1370.5 629.68C1359.56 642.597 1363.54 654.025 1348.63 654.025C1348.13 654.025 1348.13 654.025 1347.64 654.025C1346.15 653.528 1351.61 644.585 1358.57 637.132ZM1355.09 665.949C1345.65 668.93 1336.7 680.854 1336.7 680.357C1338.69 675.388 1341.18 670.918 1344.65 667.438C1345.65 667.937 1347.14 668.433 1348.63 667.937C1350.12 667.438 1351.61 666.445 1352.61 664.956C1353.6 663.464 1353.6 661.974 1353.6 660.483C1359.07 657.999 1364.53 657.502 1370 659.987C1355.09 672.407 1357.58 686.319 1340.18 683.338C1339.69 683.338 1339.19 683.338 1339.19 683.338C1338.19 682.841 1345.65 673.4 1355.09 665.949ZM1324.77 707.186C1321.79 710.167 1318.81 713.644 1316.33 716.625C1317.32 716.129 1318.81 715.632 1320.3 715.632C1320.3 715.632 1320.3 715.632 1320.3 716.129C1320.3 716.129 1320.3 716.625 1319.81 716.625C1316.82 717.618 1313.84 719.606 1310.36 720.599C1309.87 720.599 1309.87 720.103 1310.36 719.606C1314.84 716.129 1320.3 711.16 1324.77 707.186ZM1340.18 697.25C1329.25 699.733 1318.31 712.155 1318.31 711.656C1326.27 694.269 1343.66 684.331 1357.08 692.281C1342.17 702.714 1340.68 715.136 1329.75 715.632C1329.25 715.136 1328.75 714.141 1327.76 714.141C1326.76 713.148 1325.27 713.148 1323.29 713.644C1322.29 713.644 1321.79 714.141 1320.8 714.637H1320.3C1319.81 714.141 1329.25 704.205 1340.18 697.25ZM1323.78 729.046C1312.85 727.556 1298.93 735.506 1299.43 735.008C1305.89 728.549 1313.35 724.079 1320.8 723.084C1321.3 723.58 1321.3 723.58 1321.79 724.079C1322.79 725.072 1324.28 725.072 1326.27 724.575C1327.26 724.079 1328.25 723.58 1329.25 723.084C1333.72 723.58 1338.19 726.065 1341.18 730.041C1320.8 735.506 1317.32 750.908 1301.91 739.977C1301.42 739.48 1301.42 739.48 1300.92 738.984C1299.93 738.487 1311.85 732.027 1323.78 729.046ZM1336.21 627.692C1336.7 631.17 1337.7 635.144 1337.7 638.125C1336.7 637.132 1335.71 635.144 1333.72 634.647C1336.7 637.132 1338.19 640.609 1340.18 643.59C1340.18 643.59 1340.68 643.59 1340.68 643.094C1339.69 638.623 1337.7 632.163 1336.21 627.692ZM1330.24 613.284C1336.7 620.239 1338.69 633.654 1339.19 633.158C1341.67 617.258 1333.72 602.353 1320.8 601.36C1327.76 618.253 1319.31 628.685 1335.21 633.654C1335.71 633.654 1335.71 633.654 1336.21 634.151C1336.7 634.647 1334.71 623.22 1330.24 613.284ZM1327.76 645.082C1332.23 653.528 1330.74 667.438 1331.24 666.942C1337.2 652.037 1333.72 635.144 1321.79 631.17C1324.28 649.552 1313.84 657.502 1327.26 666.445C1327.76 666.445 1327.76 666.942 1328.25 666.942C1328.75 667.438 1329.75 655.514 1327.76 645.082ZM1316.33 675.388C1319.31 684.331 1315.33 698.243 1315.33 697.746C1318.81 692.777 1320.8 686.815 1321.3 681.847C1320.3 680.854 1319.31 679.861 1318.81 678.369V677.873C1318.31 675.885 1318.81 674.395 1319.81 672.904C1320.3 672.407 1320.3 671.911 1320.8 671.414C1319.31 666.942 1316.82 662.968 1312.85 660.98C1311.85 679.362 1299.93 685.324 1311.85 696.751C1312.35 697.25 1312.35 697.25 1312.85 697.746C1312.85 697.746 1315.83 686.319 1316.33 675.388ZM1344.65 656.013C1345.65 655.514 1347.14 654.521 1348.63 654.521C1348.13 655.018 1347.64 655.018 1347.14 655.514C1346.64 655.514 1346.64 655.514 1346.15 655.514C1345.65 656.011 1345.15 656.013 1344.65 656.013ZM1327.76 670.419C1327.26 669.426 1326.76 667.937 1326.27 666.942C1328.25 667.937 1328.75 669.923 1329.25 671.414C1329.75 667.937 1329.75 664.457 1330.24 660.483C1330.24 664.457 1330.74 669.426 1330.24 674.395C1330.24 672.407 1329.25 670.917 1327.76 670.419ZM1318.81 707.682C1310.86 719.606 1301.42 731.034 1290.98 740.97C1295.95 738.487 1301.91 736.003 1306.39 734.015C1302.91 736.003 1298.93 737.989 1295.95 740.473C1297.44 740.473 1299.93 740.473 1301.91 741.468C1297.94 740.97 1293.47 741.965 1289.49 742.461C1283.03 748.423 1275.58 753.889 1268.12 758.856L1275.58 745.939C1281.54 741.468 1287.5 736.499 1292.97 731.034C1292.47 727.06 1292.97 723.58 1291.98 719.606C1293.47 721.098 1293.47 723.58 1293.96 725.072C1295.45 722.091 1296.45 718.117 1297.94 714.637C1296.94 719.11 1295.45 725.568 1293.96 730.041C1300.92 723.084 1306.88 715.632 1312.85 707.682C1312.35 704.205 1312.35 700.231 1310.86 696.751C1312.35 698.243 1312.85 700.231 1312.85 701.72C1313.84 698.739 1314.84 694.765 1315.83 691.288C1315.33 695.758 1314.34 701.72 1313.35 706.689C1313.84 705.694 1314.84 704.701 1315.33 703.708C1319.81 696.751 1324.28 689.3 1327.76 681.847C1328.75 681.35 1329.25 680.357 1329.75 679.362C1330.24 677.873 1330.74 676.381 1330.74 674.891C1338.19 657.999 1343.16 640.113 1345.65 621.234C1346.64 633.654 1344.65 646.075 1341.18 658.495C1343.66 655.018 1346.15 651.044 1348.13 648.063C1346.64 651.044 1344.65 654.025 1343.66 657.006C1342.67 657.502 1342.17 658.495 1341.67 658.994C1341.18 659.49 1341.18 659.987 1341.18 660.483L1340.68 660.98C1337.7 670.419 1334.22 679.86 1329.75 688.803C1333.22 684.827 1337.7 680.357 1341.67 676.381C1339.19 679.362 1336.7 682.343 1334.71 685.324C1336.21 684.828 1338.19 683.834 1340.18 684.331C1336.21 685.324 1333.22 687.808 1329.75 689.796C1326.27 695.262 1322.79 701.72 1318.81 707.682ZM1298.93 697.746C1301.42 707.186 1295.95 720.599 1296.45 720.599C1306.39 707.682 1307.38 689.796 1296.45 682.343C1293.96 701.224 1281.54 705.694 1292.47 718.613C1292.97 719.11 1292.97 719.11 1293.47 719.606C1294.46 720.599 1297.94 709.174 1298.93 697.746ZM1328.75 674.395C1329.25 675.885 1328.75 677.376 1328.25 678.369C1327.76 679.362 1326.76 680.357 1325.77 680.357C1324.77 680.357 1323.78 680.357 1322.79 679.861C1322.29 679.861 1322.29 679.362 1321.79 678.866V678.369C1321.79 678.369 1321.79 678.369 1321.79 677.873C1322.29 676.88 1323.29 675.885 1324.28 675.885C1325.27 675.885 1326.27 675.885 1327.26 676.381C1327.76 672.407 1328.25 673.4 1328.75 674.395ZM1360.56 597.882C1361.06 598.875 1360.56 599.868 1360.56 600.863C1360.06 601.856 1358.57 602.849 1357.58 603.348C1356.58 603.348 1355.59 603.348 1354.59 602.849C1353.6 602.353 1353.1 601.36 1352.61 600.367V599.868V599.372C1353.1 598.379 1354.59 597.386 1355.59 596.887C1356.58 596.391 1358.07 596.887 1359.07 597.386C1359.56 595.894 1360.06 596.887 1360.56 597.882ZM1351.61 660.483C1351.61 660.98 1351.61 660.98 1351.61 661.476V661.974V662.471C1351.12 663.464 1350.12 663.961 1349.13 664.457C1348.63 664.457 1348.63 664.457 1348.13 663.961C1347.14 663.464 1346.64 662.471 1346.15 661.476C1346.15 660.483 1346.15 658.994 1346.64 657.999C1347.14 657.006 1348.13 656.509 1349.13 656.013C1350.12 656.013 1351.12 656.013 1352.11 656.509C1350.62 658.495 1351.12 659.49 1351.61 660.483ZM1328.75 718.117C1329.25 719.11 1328.75 720.599 1328.25 721.098C1327.76 722.091 1326.76 722.587 1325.77 723.084C1325.27 723.084 1324.77 723.084 1324.28 722.587C1323.29 722.091 1322.79 721.098 1322.79 720.599C1322.79 719.606 1322.79 718.613 1323.29 717.618C1323.78 716.625 1324.77 716.129 1325.77 715.632H1326.27H1326.76C1327.76 716.129 1328.25 717.122 1328.75 718.117ZM728.407 286.365H1201.53H1206.99V291.83V663.961V665.452C1206.99 665.452 1206.99 665.452 1206.99 665.949C1206.99 666.445 1206.99 666.942 1206.99 666.942V669.426C1205.5 715.136 1179.16 763.328 1136.42 800.592C1093.19 838.848 1033.55 865.677 967.949 866.67H964.469C899.864 866.67 840.723 842.326 797.487 806.554C752.759 769.29 724.432 719.11 722.444 669.426V664.457V663.961V292.327V286.861H728.407V286.365ZM701.571 802.081L709.025 810.031L679.207 838.848C673.243 844.81 667.777 847.791 662.807 847.791C657.837 847.791 653.364 845.803 648.892 841.333C643.922 836.364 641.934 831.395 641.934 826.428C642.431 821.459 644.916 816.49 650.383 811.521L681.195 781.711L689.146 790.157L659.328 818.478C655.849 821.955 653.861 824.936 653.364 827.421C652.867 829.905 653.861 831.891 655.849 834.376C657.837 836.364 660.322 837.357 662.807 836.86C665.292 836.364 668.274 834.376 671.752 830.898L701.571 802.081Z" fill="#004F8C"/>
<rect x="715.453" y="283.053" width="501.096" height="490.495" fill="black"/>
<ellipse cx="962.968" cy="792.18" rx="213.703" ry="81.0271" fill="black"/>
</g>
<defs>
<clipPath id="clip0_482_1381">
<rect width="821" height="864" fill="white" transform="translate(549 108)"/>
</clipPath>
</defs>
</svg>
