<svg width="435" height="731" viewBox="0 0 435 731" fill="none" xmlns="http://www.w3.org/2000/svg">
<rect width="435" height="731" rx="25" fill="black"/>
<circle cx="218" cy="366" r="143" fill="white"/>
<rect x="320.092" y="531.564" width="72.3387" height="41.0827" rx="7.5" transform="rotate(-39.9972 320.092 531.564)" fill="white" stroke="black" stroke-width="3"/>
<path d="M355.886 520.3L357.33 520.682L355.886 520.3L346.122 557.227C345.496 559.594 348.293 561.357 350.159 559.771L397.941 519.142C399.806 517.556 398.516 514.512 396.079 514.749L358.061 518.451C357.021 518.552 356.153 519.29 355.886 520.3Z" fill="white" stroke="black" stroke-width="3"/>
<path d="M363.753 529.548C364.796 529.459 365.673 528.729 365.951 527.72L376.057 490.939C376.705 488.58 373.928 486.79 372.047 488.355L323.937 528.392C322.057 529.957 323.312 533.013 325.75 532.804L363.753 529.548Z" fill="white" stroke="black" stroke-width="3"/>
<rect x="103.393" y="558.019" width="72.3387" height="41.0827" rx="7.5" transform="rotate(20.7192 103.393 558.019)" fill="white" stroke="black" stroke-width="3"/>
<path d="M130.726 583.73L131.099 585.176L130.726 583.73L93.7412 593.277C91.3707 593.888 91.2015 597.19 93.4971 598.041L152.306 619.845C154.602 620.696 156.626 618.081 155.227 616.072L133.402 584.723C132.805 583.865 131.738 583.469 130.726 583.73Z" fill="white" stroke="black" stroke-width="3"/>
<path d="M126.507 595.115C127.095 595.981 128.16 596.389 129.176 596.138L166.2 586.962C168.575 586.373 168.777 583.075 166.492 582.2L108.04 559.822C105.755 558.947 103.703 561.537 105.078 563.561L126.507 595.115Z" fill="white" stroke="black" stroke-width="3"/>
<rect x="181.801" y="65.5005" width="72.3387" height="41.0827" rx="7.5" fill="white" stroke="black" stroke-width="3"/>
<path d="M216.461 79.8791L217.322 81.0995L216.461 79.8791L185.246 101.893C183.245 103.303 184.255 106.452 186.703 106.436L249.423 106.023C251.871 106.007 252.839 102.845 250.82 101.461L219.316 79.8603C218.454 79.2694 217.315 79.2769 216.461 79.8791Z" fill="white" stroke="black" stroke-width="3"/>
<path d="M216.544 92.0202C217.4 92.6222 218.541 92.6267 219.402 92.0317L250.785 70.3509C252.798 68.96 251.821 65.8039 249.374 65.794L186.785 65.5427C184.338 65.5329 183.335 68.6811 185.337 70.0881L216.544 92.0202Z" fill="white" stroke="black" stroke-width="3"/>
<g clip-path="url(#clip0_345_1420)">
<path d="M218 432C254.451 432 284 402.451 284 366C284 329.549 254.451 300 218 300C181.549 300 152 329.549 152 366C152 402.451 181.549 432 218 432Z" fill="black"/>
<path fill-rule="evenodd" clip-rule="evenodd" d="M181.875 365.303C201.115 356.921 213.945 351.394 220.364 348.724C238.693 341.1 242.502 339.776 244.984 339.732C245.53 339.723 246.751 339.858 247.542 340.5C248.209 341.042 248.393 341.773 248.481 342.287C248.569 342.801 248.678 343.971 248.591 344.885C247.598 355.321 243.3 380.647 241.114 392.336C240.189 397.282 238.367 398.94 236.603 399.102C232.771 399.455 229.86 396.57 226.148 394.136C220.339 390.328 217.058 387.958 211.419 384.242C204.903 379.948 209.127 377.588 212.841 373.731C213.812 372.722 230.7 357.361 231.027 355.968C231.067 355.794 231.105 355.144 230.719 354.801C230.333 354.458 229.764 354.575 229.353 354.669C228.77 354.801 219.491 360.934 201.514 373.069C198.88 374.878 196.494 375.759 194.356 375.713C192 375.662 187.467 374.381 184.097 373.285C179.964 371.942 176.679 371.231 176.965 368.95C177.114 367.761 178.75 366.546 181.875 365.303Z" fill="white"/>
</g>
<defs>
<clipPath id="clip0_345_1420">
<rect width="132" height="132" fill="white" transform="translate(152 300)"/>
</clipPath>
</defs>
</svg>
