<svg width="132" height="132" viewBox="0 0 132 132" fill="none" xmlns="http://www.w3.org/2000/svg">
<g clip-path="url(#clip0_375_1316)">
<path d="M66 132C102.451 132 132 102.451 132 66C132 29.5492 102.451 0 66 0C29.5492 0 0 29.5492 0 66C0 102.451 29.5492 132 66 132Z" fill="black"/>
<path fill-rule="evenodd" clip-rule="evenodd" d="M29.8746 65.3032C49.115 56.9205 61.9449 51.3941 68.3643 48.7241C86.6932 41.1004 90.5018 39.7761 92.9842 39.7324C93.5302 39.7228 94.7509 39.8581 95.5417 40.4997C96.2094 41.0415 96.3931 41.7734 96.481 42.2871C96.5689 42.8008 96.6784 43.971 96.5914 44.8853C95.5981 55.3215 91.3004 80.6473 89.1139 92.3359C88.1887 97.2819 86.367 98.9402 84.6034 99.1025C80.7707 99.4552 77.8603 96.5696 74.1481 94.1362C68.3392 90.3284 65.0576 87.958 59.4191 84.2423C52.9028 79.9482 57.127 77.5881 60.8406 73.731C61.8125 72.7216 78.6996 57.3614 79.0265 55.968C79.0674 55.7937 79.1053 55.1441 78.7194 54.8011C78.3335 54.4581 77.7639 54.5754 77.3529 54.6687C76.7703 54.8009 67.4906 60.9345 49.5137 73.0694C46.8797 74.8781 44.4939 75.7593 42.3563 75.7132C39.9997 75.6622 35.4667 74.3807 32.0969 73.2853C27.9636 71.9418 24.6786 71.2314 24.9646 68.9496C25.1136 67.7612 26.7503 66.5457 29.8746 65.3032Z" fill="white"/>
</g>
<defs>
<clipPath id="clip0_375_1316">
<rect width="132" height="132" fill="white"/>
</clipPath>
</defs>
</svg>
