<svg width="435" height="731" viewBox="0 0 435 731" fill="none" xmlns="http://www.w3.org/2000/svg">
<rect width="435" height="731" rx="25" fill="black"/>
<circle cx="218" cy="366" r="143" fill="white"/>
<rect x="316.8" y="517.5" width="72.3387" height="41.0827" rx="7.5" fill="white" stroke="black" stroke-width="3"/>
<path d="M351.461 531.879L352.322 533.099L351.461 531.879L320.246 553.893C318.245 555.303 319.255 558.452 321.703 558.436L384.423 558.023C386.871 558.007 387.839 554.845 385.82 553.461L354.316 531.86C353.454 531.269 352.315 531.277 351.461 531.879Z" fill="white" stroke="black" stroke-width="3"/>
<path d="M351.544 544.02C352.4 544.622 353.541 544.627 354.402 544.032L385.785 522.351C387.798 520.96 386.821 517.804 384.374 517.794L321.785 517.543C319.338 517.533 318.335 520.681 320.337 522.088L351.544 544.02Z" fill="white" stroke="black" stroke-width="3"/>
<rect x="101.247" y="593.387" width="72.3387" height="41.0827" rx="7.5" transform="rotate(32.1315 101.247 593.387)" fill="white" stroke="black" stroke-width="3"/>
<path d="M122.952 623.998L123.032 625.489L122.952 623.998L84.8102 626.037C82.3655 626.168 81.5463 629.371 83.6281 630.66L136.96 663.668C139.042 664.957 141.543 662.795 140.569 660.548L125.38 625.5C124.964 624.541 123.996 623.942 122.952 623.998Z" fill="white" stroke="black" stroke-width="3"/>
<path d="M116.565 634.323C116.97 635.288 117.934 635.899 118.98 635.853L157.087 634.184C159.532 634.077 160.383 630.885 158.316 629.575L105.447 596.073C103.38 594.764 100.857 596.896 101.804 599.153L116.565 634.323Z" fill="white" stroke="black" stroke-width="3"/>
<rect x="272.8" y="121.5" width="72.3387" height="41.0827" rx="7.5" fill="white" stroke="black" stroke-width="3"/>
<path d="M307.461 135.879L308.322 137.099L307.461 135.879L276.246 157.893C274.245 159.303 275.255 162.452 277.703 162.436L340.423 162.023C342.871 162.007 343.839 158.845 341.82 157.461L310.316 135.86C309.454 135.269 308.315 135.277 307.461 135.879Z" fill="white" stroke="black" stroke-width="3"/>
<path d="M307.544 148.02C308.4 148.622 309.541 148.627 310.402 148.032L341.785 126.351C343.798 124.96 342.821 121.804 340.374 121.794L277.785 121.543C275.338 121.533 274.335 124.681 276.337 126.088L307.544 148.02Z" fill="white" stroke="black" stroke-width="3"/>
<rect x="31.4177" y="70.7604" width="72.3387" height="41.0827" rx="7.5" transform="rotate(-27.8146 31.4177 70.7604)" fill="white" stroke="black" stroke-width="3"/>
<path d="M68.7833 67.3042L70.114 67.982L68.7833 67.3042L51.4464 101.34C50.3352 103.521 52.6974 105.834 54.8553 104.678L110.135 75.047C112.293 73.8904 111.674 70.6427 109.243 70.3604L71.2993 65.9556C70.2612 65.8351 69.2577 66.373 68.7833 67.3042Z" fill="white" stroke="black" stroke-width="3"/>
<path d="M74.5217 78.0042C75.56 78.1369 76.5711 77.6087 77.0553 76.6805L94.6955 42.8611C95.8272 40.6915 93.4902 38.356 91.3213 39.4891L35.8464 68.4716C33.6775 69.6048 34.2597 72.857 36.6869 73.1673L74.5217 78.0042Z" fill="white" stroke="black" stroke-width="3"/>
<rect x="154" y="302" width="127" height="127" rx="25" fill="black"/>
<path d="M210.273 376.305V344.333H222.686V362.041C232.617 360.86 238.892 349.744 240.789 344.333H253.719C252.168 355.646 241.909 364.336 236.651 366.959C245.444 369.665 256.305 382.699 256.305 390.077H242.858C237.892 377.485 227.341 373.681 222.686 373.354V390.077C193.463 392.045 177.946 368.927 178.722 344.333H191.653C192.428 367.451 204.842 374.337 210.273 376.305Z" fill="white"/>
</svg>
