<svg width="435" height="731" viewBox="0 0 435 731" fill="none" xmlns="http://www.w3.org/2000/svg">
<rect width="435" height="731" rx="25" fill="black"/>
<circle cx="218" cy="366" r="143" fill="white"/>
<rect x="73.5304" y="188.308" width="72.3387" height="41.0827" rx="7.5" transform="rotate(-34.0828 73.5304 188.308)" fill="white" stroke="black" stroke-width="3"/>
<path d="M110.296 180.793L111.693 181.321L110.296 180.793L96.7787 216.518C95.9123 218.807 98.5129 220.849 100.532 219.463L152.246 183.974C154.265 182.589 153.295 179.428 150.847 179.413L112.65 179.178C111.604 179.171 110.666 179.815 110.296 180.793Z" fill="white" stroke="black" stroke-width="3"/>
<path d="M117.168 190.802C118.215 190.821 119.162 190.185 119.542 189.21L133.384 153.667C134.272 151.386 131.694 149.32 129.662 150.683L77.6834 185.549C75.6512 186.912 76.5849 190.082 79.0316 190.125L117.168 190.802Z" fill="white" stroke="black" stroke-width="3"/>
<rect x="181.801" y="592.5" width="72.3387" height="41.0827" rx="7.5" fill="white" stroke="black" stroke-width="3"/>
<path d="M216.461 606.879L217.322 608.099L216.461 606.879L185.246 628.893C183.245 630.303 184.255 633.452 186.703 633.436L249.423 633.023C251.871 633.007 252.839 629.845 250.82 628.461L219.316 606.86C218.454 606.269 217.315 606.277 216.461 606.879Z" fill="white" stroke="black" stroke-width="3"/>
<path d="M216.544 619.02C217.4 619.622 218.541 619.627 219.402 619.032L250.785 597.351C252.798 595.96 251.821 592.804 249.374 592.794L186.785 592.543C184.338 592.533 183.335 595.681 185.337 597.088L216.544 619.02Z" fill="white" stroke="black" stroke-width="3"/>
<rect x="294.864" y="74.3407" width="72.3387" height="41.0827" rx="7.5" transform="rotate(17.4446 294.864 74.3407)" fill="white" stroke="black" stroke-width="3"/>
<path d="M323.62 98.4487L324.075 99.8709L323.62 98.4487L287.241 110.092C284.909 110.838 284.929 114.144 287.27 114.863L347.228 133.271C349.568 133.99 351.44 131.264 349.928 129.338L326.349 99.2865C325.704 98.4643 324.615 98.1301 323.62 98.4487Z" fill="white" stroke="black" stroke-width="3"/>
<path d="M320.059 110.056C320.696 110.887 321.783 111.233 322.783 110.924L359.222 99.6483C361.559 98.9249 361.573 95.621 359.242 94.8781L299.607 75.8752C297.275 75.1322 295.375 77.835 296.863 79.7775L320.059 110.056Z" fill="white" stroke="black" stroke-width="3"/>
<path d="M141.596 442.718L152.385 403.319C145.728 391.789 142.229 378.708 142.233 365.31C142.249 323.389 176.364 289.284 218.281 289.284C238.626 289.293 257.72 297.211 272.076 311.582C286.435 325.953 294.338 345.055 294.33 365.369C294.313 407.291 260.196 441.4 218.285 441.4C218.281 441.4 218.286 441.4 218.285 441.4H218.251C205.524 441.395 193.017 438.201 181.91 432.147L141.596 442.718Z" fill="black"/>
<path d="M138.855 445.467L150.031 404.658C143.137 392.714 139.512 379.165 139.517 365.284C139.534 321.861 174.872 286.532 218.294 286.532C239.366 286.541 259.145 294.743 274.018 309.629C288.89 324.515 297.078 344.303 297.071 365.348C297.052 408.77 261.709 444.103 218.294 444.103C218.292 444.103 218.296 444.103 218.294 444.103H218.26C205.076 444.098 192.122 440.792 180.616 434.516L138.855 445.467ZM182.55 420.259L184.943 421.677C194.994 427.642 206.517 430.797 218.269 430.803H218.294C254.381 430.803 283.754 401.436 283.769 365.343C283.775 347.851 276.972 331.403 264.609 319.031C252.246 306.659 235.808 299.842 218.318 299.834C182.202 299.834 152.831 329.197 152.817 365.289C152.812 377.658 156.272 389.702 162.827 400.125L164.385 402.602L157.769 426.757L182.55 420.259Z" fill="white"/>
<path fill-rule="evenodd" clip-rule="evenodd" d="M198.605 332.361C197.13 329.083 195.578 329.017 194.174 328.96C193.027 328.911 191.714 328.914 190.403 328.914C189.091 328.914 186.958 329.408 185.155 331.377C183.35 333.346 178.264 338.108 178.264 347.793C178.264 357.479 185.318 366.837 186.302 368.152C187.286 369.465 199.919 389.975 219.926 397.865C236.553 404.423 239.936 403.118 243.545 402.79C247.155 402.462 255.191 398.028 256.831 393.432C258.472 388.836 258.472 384.897 257.98 384.073C257.487 383.253 256.175 382.761 254.207 381.777C252.239 380.793 242.561 376.029 240.757 375.373C238.952 374.716 237.64 374.389 236.328 376.36C235.014 378.328 231.245 382.761 230.097 384.073C228.948 385.389 227.799 385.553 225.831 384.568C223.863 383.581 217.523 381.504 210.003 374.798C204.152 369.582 200.2 363.138 199.052 361.167C197.904 359.199 199.033 358.226 199.917 357.151C201.509 355.215 204.18 351.733 204.836 350.421C205.492 349.106 205.164 347.958 204.672 346.972C204.18 345.988 200.354 336.254 198.605 332.361V332.361Z" fill="white"/>
</svg>
