<svg width="166" height="166" viewBox="0 0 166 166" fill="none" xmlns="http://www.w3.org/2000/svg">
<path d="M6.5957 159.718L17.3848 120.319C10.7282 108.789 7.22894 95.7078 7.23274 82.3097C7.24921 40.3892 41.3643 6.28418 83.281 6.28418C103.626 6.29305 122.72 14.2111 137.076 28.5818C151.435 42.9526 159.338 62.0549 159.33 82.3692C159.313 124.291 125.196 158.4 83.2848 158.4C83.281 158.4 83.286 158.4 83.2848 158.4H83.2506C70.5237 158.395 58.0173 155.201 46.9102 149.147L6.5957 159.718Z" fill="black"/>
<path d="M3.85547 162.467L15.0309 121.658C8.13744 109.714 4.51151 96.1648 4.51657 82.2843C4.5343 38.8606 39.8717 3.53223 83.2942 3.53223C104.366 3.54109 124.145 11.7428 139.018 26.629C153.89 41.5151 162.078 61.3026 162.071 82.3476C162.052 125.77 126.709 161.103 83.2942 161.103C83.2917 161.103 83.2955 161.103 83.2942 161.103H83.26C70.076 161.098 57.1224 157.792 45.6164 151.516L3.85547 162.467ZM47.5503 137.259L49.9427 138.677C59.9935 144.642 71.5172 147.797 83.2689 147.803H83.2942C119.381 147.803 148.754 118.436 148.769 82.3425C148.775 64.8512 141.972 48.4035 129.609 36.0313C117.246 23.6591 100.808 16.8416 83.3183 16.834C47.2021 16.834 17.8311 46.1973 17.8172 82.2893C17.8121 94.6577 21.2721 106.702 27.8274 117.125L29.3852 119.602L22.7691 143.757L47.5503 137.259Z" fill="white"/>
<path fill-rule="evenodd" clip-rule="evenodd" d="M63.6046 49.361C62.1304 46.0833 60.5777 46.0174 59.1744 45.9605C58.027 45.9111 56.7137 45.9136 55.4028 45.9136C54.0908 45.9136 51.958 46.4075 50.1546 48.3769C48.3498 50.3463 43.2637 55.1083 43.2637 64.7931C43.2637 74.4792 50.3179 83.8372 51.302 85.1519C52.2861 86.4652 64.9192 106.975 84.9257 114.865C101.553 121.423 104.936 120.118 108.545 119.79C112.155 119.462 120.191 115.028 121.831 110.432C123.472 105.836 123.472 101.897 122.979 101.073C122.487 100.253 121.175 99.7608 119.207 98.7767C117.239 97.7927 107.561 93.0294 105.757 92.3734C103.952 91.7161 102.64 91.3893 101.328 93.36C100.014 95.3281 96.2454 99.7608 95.0968 101.073C93.9481 102.389 92.7994 102.553 90.8313 101.568C88.8632 100.581 82.5232 98.5044 75.0028 91.7984C69.1517 86.5817 65.2003 80.1378 64.0516 78.1672C62.9042 76.1991 64.0326 75.2264 64.9166 74.1512C66.5086 72.2147 69.1796 68.7331 69.8356 67.4211C70.4916 66.1064 70.1636 64.9577 69.6722 63.9724C69.1796 62.9884 65.3536 53.2541 63.6046 49.361Z" fill="white"/>
</svg>
