<svg width="1837" height="1370" viewBox="0 0 1837 1370" fill="none" xmlns="http://www.w3.org/2000/svg">
<path d="M1154.92 87.6916C1020.29 -26.6891 806.035 -19.4893 681.498 103.736L625.226 159.415L535.358 142.218C349.352 106.624 170.34 226.597 158.669 396.594L152.281 399.548C65.7855 439.559 16.4057 512.714 8.00436 589.726C-0.240239 665.302 31.0451 744.068 104.34 798.122C14.8333 968.71 131.731 1168.01 339.12 1201.08L352.629 1203.23C442.969 1360.91 668.445 1411.73 832.225 1311.75L933.837 1249.73L999.417 1295.24C1152.76 1401.67 1377.31 1357.54 1465.84 1203.23L1535.62 1192.1C1620.28 1178.61 1683.17 1128.32 1712.46 1065.32C1741.08 1003.76 1737.46 930.32 1691.12 868.159L1729.55 834.79C1879.16 704.901 1842.84 483.669 1659.8 396.615C1648.19 228.002 1468.35 110.492 1284.9 149.685L1239.34 159.417L1154.92 87.6916Z" fill="black" stroke="#242424" stroke-width="12"/>
<path d="M1248.27 149.048C1389.79 102.371 1669.25 192.908 1679.65 384.459C1930.72 561.018 1830.3 759.9 1727.59 869.489C1807.47 1098.81 1668.24 1173.9 1483.37 1228.69C1442.28 1330.17 1125.02 1391.05 931.016 1283.49C679.948 1389.02 522.459 1401.19 342.147 1218.55C166.399 1169.84 6.62881 993.283 104.774 794.4C-43.1195 689.308 -15.2657 465.289 145.858 390.548C157.901 168.762 424.361 111.389 620.604 149.048C782.657 -51.8624 1093.07 -17.3632 1248.27 149.048Z" fill="black"/>
<path d="M1222.56 191.155C1353.24 148.202 1611.32 231.514 1620.93 407.781C1852.78 570.252 1760.04 753.265 1665.19 854.109C1738.96 1065.13 1610.39 1134.23 1439.66 1184.65C1401.72 1278.03 1108.74 1334.05 929.578 1235.07C697.724 1332.18 552.287 1343.39 385.773 1175.32C223.474 1130.5 75.9306 968.025 166.565 785.012C29.9894 688.305 55.7117 482.161 204.505 413.384C215.627 209.295 461.695 156.5 642.921 191.154C792.573 6.27486 1079.23 38.0213 1222.56 191.155Z" fill="black"/>
<path d="M226.336 563.531C145.646 347.088 333.945 313.249 452.299 358.615C290.219 352.15 226.336 474.26 251.443 529.04C248.443 551.957 222.307 541.091 226.336 563.531Z" fill="#242424"/>
<path d="M1589.42 585.535C1669.17 418.47 1523.23 380.619 1441.06 364.388C1648.77 301.494 1687.43 552.375 1600.7 609.183C1598.5 614.958 1597.31 607.493 1595.95 599.227L1589.42 585.535Z" fill="#242424"/>
<path d="M1518.99 796.597C1532.2 878.457 1473.82 999.764 1285.34 995.924C1389.85 1032.9 1586.11 980.761 1518.99 796.597Z" fill="#242424"/>
<path d="M1469.14 542.892C1545.75 569.267 1643.66 701.679 1512.62 799.926C1607.13 767.463 1708.8 553.036 1469.14 542.892Z" fill="#242424"/>
<path d="M434.913 1048.3C330.454 1053.91 179.7 962.942 275.563 818.892C179.699 895.99 195.716 1101.68 434.913 1048.3Z" fill="#242424"/>
<path d="M260.894 804.93C187.314 738.783 157.037 578.049 331.303 519.288C207.251 507.039 58.1078 680.173 260.894 804.93Z" fill="#242424"/>
</svg>
