<svg width="1354" height="1013" viewBox="0 0 1354 1013" fill="none" xmlns="http://www.w3.org/2000/svg">
<path d="M914.931 118.427L853.442 66.1872C753.819 -18.4512 595.332 -13.1373 503.157 78.0669L462.37 118.424L397.105 105.935C259.932 79.6857 127.532 167.852 118.281 293.508L114.435 295.288C50.3468 324.933 13.6666 379.196 7.42521 436.408C1.34068 492.183 24.2496 550.244 77.8132 590.297C12.561 716.625 99.3828 863.35 252.248 887.719L261.433 889.184C328.603 1005.47 495.044 1042.69 615.942 968.897L689.782 923.825L737.158 956.705C850.4 1035.3 1016.19 1003.01 1082.06 889.184L1132.63 881.122C1195.38 871.119 1242.08 833.819 1263.86 786.992C1284.96 741.607 1282.48 687.514 1248.87 641.57L1276.03 617.993C1386.75 521.863 1360.03 358.282 1225.21 293.538C1216 168.878 1082.98 82.5257 947.666 111.433L914.931 118.427Z" fill="black" stroke="#242424" stroke-width="12"/>
<path d="M921.066 112.517C1025.13 78.192 1230.64 144.77 1238.29 285.632C1422.92 415.469 1349.07 561.722 1273.54 642.311C1332.29 810.949 1229.9 866.167 1093.95 906.462C1063.73 981.08 830.43 1025.85 687.763 946.756C503.134 1024.36 387.32 1033.31 254.723 899C125.483 863.183 7.99166 733.346 80.1648 587.093C-28.592 509.81 -8.10897 345.072 110.377 290.11C119.234 127.014 315.181 84.8232 459.494 112.517C578.663 -35.2274 806.932 -9.8576 921.066 112.517Z" fill="black"/>
<path d="M902.155 143.481C998.255 111.894 1188.04 173.16 1195.1 302.783C1365.6 422.26 1297.4 556.843 1227.65 631.001C1281.9 786.183 1187.35 836.995 1061.8 874.074C1033.9 942.739 818.455 983.938 686.705 911.153C516.205 982.565 409.255 990.804 286.805 867.208C167.455 834.249 58.9546 714.772 125.605 580.189C25.1705 509.073 44.0861 357.48 153.505 306.903C161.684 156.821 342.636 117.997 475.905 143.481C585.955 7.52514 796.755 30.8706 902.155 143.481Z" fill="black"/>
<line x1="354.184" y1="207.924" x2="1011.78" y2="774.803" stroke="white" stroke-width="3"/>
</svg>
