<svg width="78" height="78" viewBox="0 0 78 78" fill="none" xmlns="http://www.w3.org/2000/svg">
<circle cx="39" cy="39" r="39" fill="black"/>
<rect x="11.175" y="22.875" width="55.65" height="32.0062" rx="7.5" fill="black" stroke="white" stroke-width="3"/>
<path d="M63.526 49.8994L40.3676 33.9718C39.5044 33.3781 38.3625 33.3857 37.5072 33.9907L14.5611 50.2226C12.5639 51.6355 13.575 54.7797 16.0213 54.7636L62.1259 54.4592C64.5722 54.443 65.5417 51.2857 63.526 49.8994Z" fill="black" stroke="white" stroke-width="3"/>
<path d="M14.6305 27.4534L37.5699 43.6252C38.4276 44.2299 39.5717 44.2345 40.4343 43.6367L63.5032 27.6502C65.5129 26.2575 64.5344 23.1053 62.0893 23.0954L16.081 22.9101C13.6359 22.9003 12.632 26.0445 14.6305 27.4534Z" fill="black" stroke="white" stroke-width="3"/>
</svg>
